<?xml version="1.0" encoding="utf-8"?>
<!-- Generator: Adobe Illustrator 19.0.0, SVG Export Plug-In . SVG Version: 6.00 Build 0)  -->
<svg version="1.1" id="Capa_1" xmlns="http://www.w3.org/2000/svg" xmlns:xlink="http://www.w3.org/1999/xlink" x="0px" y="0px"
	 viewBox="0 0 94.6 20" style="enable-background:new 0 0 94.6 20;" xml:space="preserve">
<style type="text/css">
	.st0{fill:#F0193C;}
	.st1{fill:#003D7C;}
</style>
<g>
	<path class="st0" d="M5.1,4.3c-1.1,0-1.9-0.8-1.9-2C3.2,0.9,4.3,0,5.5,0c1.2,0,2,0.8,2,2C7.5,3.4,6.5,4.3,5.1,4.3L5.1,4.3z"/>
	<path class="st0" d="M52.8,4.3c-1.1,0-1.9-0.8-1.9-2c0-1.4,1.1-2.3,2.3-2.3c1.2,0,2,0.8,2,2C55.2,3.4,54.1,4.3,52.8,4.3L52.8,4.3z"
		/>
	<path class="st1" d="M0,19.7h4L6.6,6h-4L0,19.7z M15.9,8.9c0.8,0,1.4,0.1,1.9,0.3l1-3.1c-0.6-0.2-1.6-0.4-2.8-0.4
		C10.7,5.7,7,9.5,7,14.4c0,3.5,2.4,5.6,5.8,5.6c1.6,0,3-0.3,3.9-0.7l0-3.1c-0.7,0.3-1.5,0.6-2.7,0.6c-1.5,0-2.7-1-2.7-2.8
		C11.2,11.3,13,8.9,15.9,8.9z M26.6,5.6c-4.9,0-8.2,3.9-8.2,8.7c0,3.4,2.3,5.7,5.8,5.7c4.7,0,8.2-3.7,8.2-8.7
		C32.4,8.2,30.3,5.6,26.6,5.6z M24.8,16.9c-1.4,0-2.2-1.1-2.2-2.7c0-2.1,1.2-5.5,3.5-5.5c1.6,0,2.2,1.3,2.2,2.6
		C28.2,13.7,27,16.9,24.8,16.9z M43.7,5.7c-1.8,0-3.5,0.8-4.8,2.6h-0.1L39.1,6h-3.6c-0.2,1.2-0.4,2.7-0.8,4.5l-1.7,9.3h4l1.1-6.1
		c0.6-3,2.1-4.7,3.4-4.7c1,0,1.4,0.7,1.4,1.7c0,0.5-0.1,1-0.1,1.5l-1.5,7.6h4.1l1.5-8c0.1-0.7,0.2-1.7,0.2-2.3
		C47.3,7,46,5.7,43.7,5.7z M47.7,19.7h4L54.3,6h-4L47.7,19.7z M63.5,8.9c0.8,0,1.4,0.1,1.9,0.3l1-3.1c-0.6-0.2-1.6-0.4-2.8-0.4
		c-5.2,0-8.9,3.8-8.9,8.7c0,3.5,2.4,5.6,5.8,5.6c1.6,0,3-0.3,3.9-0.7l0-3.1c-0.7,0.3-1.5,0.6-2.7,0.6c-1.5,0-2.7-1-2.7-2.8
		C58.9,11.3,60.7,8.9,63.5,8.9z M80.2,6.3c-1.2-0.4-2.9-0.7-4.5-0.7c-6.7,0-9.8,4.9-9.8,9.6c0,2.9,1.7,4.8,4.2,4.8
		c1.6,0,3.4-0.8,4.6-3h0.1c-0.1,1-0.1,1.9-0.2,2.7h3.7c-0.1-1.7,0.2-4.4,0.6-6.2L80.2,6.3z M75.1,12c-0.6,3.4-2.1,4.7-3.3,4.7
		c-1.1,0-1.7-0.9-1.7-2.3c0-2.5,1.9-5.8,4.5-5.8c0.4,0,0.8,0.1,1.1,0.1L75.1,12z"/>
	<g>
		<path class="st0" d="M85.4,14.9c0.5,0,0.9,0.1,1.1,0.2l0.4-1.1c-0.3-0.1-0.8-0.3-1.4-0.3c-1.4,0-2.4,0.8-2.4,1.9
			c0,0.7,0.5,1.1,1.2,1.5c0.5,0.2,0.7,0.4,0.7,0.7c0,0.3-0.2,0.5-0.7,0.5c-0.5,0-1.1-0.2-1.4-0.4l-0.4,1.1c0.3,0.2,1,0.4,1.7,0.4
			c1.5,0,2.5-0.7,2.5-1.9c0-0.8-0.6-1.2-1.2-1.5c-0.4-0.2-0.7-0.4-0.7-0.6C84.7,15.1,85,14.9,85.4,14.9z"/>
		<path class="st0" d="M91.2,13.8c-0.8,0-1.4,0.5-1.8,1.2h0c0-0.4,0.1-0.8,0.1-1.1h-1.4c-0.1,0.5-0.1,1.4-0.3,2.2l-0.6,3.3h1.6
			l0.4-2.1c0.2-1.1,0.7-2,1.7-2c0.1,0,0.2,0,0.3,0l0.3-1.6C91.4,13.8,91.3,13.8,91.2,13.8z"/>
		<polygon class="st0" points="92.9,11.4 91.4,19.4 93,19.4 94.6,11.4 		"/>
	</g>
	<polygon class="st1" points="32.6,0.1 28.7,0.1 26,4.3 29,4.3 	"/>
</g>
</svg>
