<?xml version="1.0" encoding="utf-8"?>
<!-- Generator: Adobe Illustrator 19.0.0, SVG Export Plug-In . SVG Version: 6.00 Build 0)  -->
<svg version="1.1" id="Capa_1" xmlns="http://www.w3.org/2000/svg" xmlns:xlink="http://www.w3.org/1999/xlink" x="0px" y="0px"
	 viewBox="0 0 204 80" style="enable-background:new 0 0 204 80;" xml:space="preserve">
<style type="text/css">
	.st0{fill:#919395;}
	.st1{fill:#F0193C;}
	.st2{fill:#A5A7A9;}
</style>
<g>
	<g>
		<path class="st0" d="M0,44L8.4,0h8.9L8.9,44H0z"/>
		<path class="st0" d="M49.3,13.7l-3.9,20.4c-0.7,3.8-1.2,7.1-1.6,9.8h-7.9l0.6-5h-0.1c-3.1,4-6.8,5.6-10.5,5.6
			c-4.8,0-7.7-2.7-7.7-8.5c0-1.7,0.2-3.5,0.6-5.6l3.2-16.9h8.9l-3,16.2c-0.3,1.4-0.4,2.9-0.4,4c0,2,0.8,3.5,3,3.5
			c3,0,6.1-3.7,7.3-9.7l2.7-14H49.3z M46.8,0.6L38.7,10h-6.6L38,0.6H46.8z"/>
		<path class="st0" d="M51.1,44l3.8-20.4c0.7-3.8,1.2-7.2,1.6-9.8h7.7l-0.6,4.9h0.1C66.4,14.7,70.1,13,74,13c4.8,0,6.9,3,7.2,5.7
			c2.7-3.9,6.5-5.7,10.4-5.7c4.7,0,7.4,3,7.4,8.1c0,1.3-0.2,3.7-0.6,5.2L95.2,44h-8.6l3-16.5c0.2-1.2,0.4-2.5,0.4-3.7
			c0-2.1-0.9-3.6-3-3.6c-3,0-5.9,4-7.1,10.1L77.4,44h-8.6l3.1-16.7c0.2-1.2,0.4-2.4,0.4-3.5c0-2-0.7-3.7-2.9-3.7
			c-3,0-6.2,4.3-7.3,10.2L59.7,44H51.1z"/>
		<path class="st0" d="M102.6,44l5.7-30.3h8.9L111.5,44H102.6z"/>
		<path class="st0" d="M119,44l3.8-20.4c0.7-3.8,1.2-7.2,1.6-9.8h7.9l-0.6,5h0.1c2.8-4,6.6-5.7,10.7-5.7c5,0,7.7,3,7.7,8.2
			c0,1.4-0.2,3.7-0.5,5.1L146.4,44h-8.9l3.2-16.8c0.2-1.1,0.3-2.3,0.3-3.4c0-2.1-0.7-3.6-3-3.6c-2.9,0-6.3,3.7-7.6,10.3L127.9,44
			H119z"/>
		<path class="st0" d="M173.7,44c0.1-1.8,0.2-3.8,0.4-6h-0.2c-2.8,5-6.6,6.7-10.2,6.7c-5.5,0-9.2-4.2-9.2-10.5
			c0-10.2,6.7-21.1,21.7-21.1c3.6,0,7.5,0.7,10,1.5l-3.2,15.9c-0.7,3.9-1.3,9.8-1.2,13.6H173.7z M176.3,20c-0.7-0.1-1.6-0.2-2.4-0.2
			c-5.8,0-10,7.1-10,12.7c0,3,1.2,5,3.6,5c2.7,0,6-3,7.3-10.5L176.3,20z"/>
		<path class="st1" d="M109.6,5.6c0.1-3,2.4-5.1,5.1-5.1c2.6,0,4.5,1.7,4.5,4.4c0,3.2-2.4,5-5.3,5C111.4,9.9,109.6,8.2,109.6,5.6z"
			/>
	</g>
	<g>
		<path class="st2" d="M99.5,70.6c0-1.7,1.2-3.2,3.1-3.2c1.6,0,2.6,1.1,2.6,2.7c0,1.9-1.3,3.2-3.1,3.2
			C100.5,73.2,99.5,72.1,99.5,70.6z"/>
		<path class="st2" d="M108.6,75c0.9,0.5,2.8,0.9,4.1,0.9c2.3,0,4-1,4.6-4.1l0.3-1.3h-0.1c-1.2,1.6-2.6,2.3-4.4,2.3
			c-3.1,0-4.9-2.5-5-5.5c0-5.1,3.6-10.2,10.4-10.2c2.2,0,4.1,0.4,5.7,1.1l-2.3,12.8c-0.5,2.9-1.4,5.4-3.3,6.9
			c-1.7,1.3-3.9,1.8-6,1.8c-2.1,0-4-0.4-5-1L108.6,75z M119.2,60.8c-0.4-0.2-1-0.3-1.6-0.3c-2.8,0-4.7,3.1-4.7,6
			c0,1.6,0.7,2.7,2.1,2.7c1.5,0,3-1.6,3.5-4.3L119.2,60.8z"/>
		<path class="st2" d="M135.2,72.9c0-0.9,0.1-2,0.2-3.1h-0.1c-1.4,2.6-3.4,3.4-5.2,3.4c-2.8,0-4.7-2.1-4.7-5.4
			c0-5.2,3.5-10.8,11.1-10.8c1.8,0,3.8,0.4,5.1,0.8l-1.6,8.1c-0.4,2-0.7,5-0.6,7H135.2z M136.5,60.6c-0.3-0.1-0.8-0.1-1.2-0.1
			c-3,0-5.1,3.6-5.1,6.5c0,1.5,0.6,2.6,1.9,2.6c1.4,0,3-1.6,3.7-5.3L136.5,60.6z"/>
		<path class="st2" d="M142.6,72.9l4.3-22.5h4.6l-4.3,22.5H142.6z"/>
		<path class="st2" d="M151,72.9l4.3-22.5h4.6l-4.3,22.5H151z"/>
		<path class="st2" d="M172.4,72c-1.8,0.9-4.1,1.2-5.8,1.2c-4.4,0-6.7-2.5-6.7-6.5c0-4.7,3.4-9.6,9-9.6c3.1,0,5.4,1.7,5.4,4.6
			c0,4-3.8,5.4-10,5.2c0,0.4,0.2,1.1,0.5,1.6c0.6,0.8,1.6,1.2,3,1.2c1.7,0,3.1-0.4,4.3-1L172.4,72z M168.3,60.4
			c-2.1,0-3.3,1.7-3.6,3.2c3.5,0,5.3-0.5,5.3-1.9C170,60.9,169.4,60.4,168.3,60.4z"/>
		<path class="st2" d="M175.3,72.9l1.7-9.2c0.4-2.3,0.6-4.9,0.8-6.3h3.9c-0.1,1-0.2,2.1-0.3,3.2h0.1c1.1-2.1,2.8-3.5,4.9-3.5
			c0.3,0,0.6,0,0.9,0l-0.9,4.4c-0.2,0-0.5,0-0.7,0c-2.9,0-4.3,2.6-4.8,5.6l-1.1,5.8H175.3z"/>
		<path class="st2" d="M193.5,57.4l1,6.7c0.2,1.6,0.4,2.7,0.5,3.7h0.1c0.4-0.9,0.7-1.9,1.4-3.6l2.8-6.8h4.8l-5.5,11.1
			c-2.1,4.1-3.9,6.9-5.9,8.9c-1.8,1.7-4,2.5-5,2.6l-1-3.9c0.7-0.2,1.7-0.6,2.6-1.2c1.1-0.7,1.9-1.6,2.5-2.7c0.2-0.2,0.2-0.4,0.1-0.8
			l-3.1-14H193.5z"/>
	</g>
</g>
</svg>
